# xmcd CD database file
#
# Track frame offsets:
#	183
#	81378
#	130573
#	209308
#	257420
#
# Disc length: 4555 seconds
#
# Revision: 4
# Processed by: cddbd v1.5.2PL0 Copyright (c) Steve Scherf et al.
# Submitted via: CDex 1.85
#
DISCID=3a11c905
DTITLE=IV Miles Davis - In Silent Way
DYEAR=1991
DGENRE=Jazz
TTITLE0=Shhh/Peaceful (M D, H Hankock C Corea W Shorter D Holland J Zawinul J Mc Laughin T Williams)
TTITLE1=Sanctuaryl (M D, D Holland C Corea  J De Jonette J Riley)
TTITLE2=Spanish Key (M D, W Shorter  B Maupin J Zawinul  L Young H Brooks J Mc Laughin L Ehirte C Alias)
TTITLE3=Jean Pierre (M D, M Miller B Evans M Stern A Foster)
TTITLE4=Star People (M D, B Evans J Scofield M Stern M Miller T Barney A Foster M Cinelu)
EXTD=YEAR: 1991
EXTT0=
EXTT1=
EXTT2=
EXTT3=
EXTT4=
PLAYORDER=
